<?xml version="1.0" encoding="UTF-8"?>
<!DOCTYPE svg PUBLIC "-//W3C//DTD SVG 1.1//EN" "http://www.w3.org/Graphics/SVG/1.1/DTD/svg11.dtd">
<!-- Creator: CorelDRAW 2019 (64-Bit) -->
<svg xmlns="http://www.w3.org/2000/svg" xml:space="preserve" width="410px" height="317px" version="1.1" style="shape-rendering:geometricPrecision; text-rendering:geometricPrecision; image-rendering:optimizeQuality; fill-rule:evenodd; clip-rule:evenodd"
viewBox="0 0 243.72 188.79"
 xmlns:xlink="http://www.w3.org/1999/xlink">
 <defs>
  <style type="text/css">
   <![CDATA[
    .fil0 {fill:#4B96C1}
   ]]>
  </style>
   <mask id="id0">
  <linearGradient id="id1" gradientUnits="userSpaceOnUse" x1="109" y1="-7.76" x2="100.92" y2="84.41">
   <stop offset="0" style="stop-opacity:1; stop-color:white"/>
   <stop offset="0.521569" style="stop-opacity:-127.502; stop-color:white"/>
   <stop offset="1" style="stop-opacity:0; stop-color:white"/>
  </linearGradient>
    <rect style="fill:url(#id1)" x="-0.62" y="-0.62" width="244.96" height="190.03"/>
   </mask>
 </defs>
 <g id="Layer_x0020_1">
  <metadata id="CorelCorpID_0Corel-Layer"/>
  <path class="fil0" style="mask:url(#id0)" d="M1.37 23.96c0,0 7.01,-30.51 51.94,-22.67 18.17,3.16 51.06,12.43 68.42,13.19 9.48,0.41 32.56,-1.24 32.56,-1.24 0,0 33.39,-4.12 42.46,-2.47 0,0 31.74,1.65 30.5,27.61 0,0 -6.18,23.5 -9.48,31.74 -3.29,8.25 0.42,18.96 0.42,18.96 0,0 12.36,23.5 16.07,28.45 3.71,4.94 5.77,11.54 5.77,11.54 0,0 13.19,21.84 -10.3,37.1 -23.5,15.25 -44.93,18.96 -44.93,18.96 0,0 -28.5,5.07 -54,3.27 -28.04,-1.97 -56.59,-21.08 -72.55,-40.78 -19.55,-17.27 -33.29,-36.5 -41.78,-58.7 -1.65,-4.31 -2.83,-10.27 -5.12,-16.84 -2.63,-7.57 -6.39,-15.95 -8.4,-23.57 -2.73,-10.28 -4.2,-20.14 -1.58,-24.55z"/>
 </g>
</svg>
