<?xml version="1.0" encoding="UTF-8"?>
<!DOCTYPE svg PUBLIC "-//W3C//DTD SVG 1.1//EN" "http://www.w3.org/Graphics/SVG/1.1/DTD/svg11.dtd">
<!-- Creator: CorelDRAW 2019 (64-Bit) -->
<svg xmlns="http://www.w3.org/2000/svg" xml:space="preserve" width="1299px" height="528px" version="1.1" style="shape-rendering:geometricPrecision; text-rendering:geometricPrecision; image-rendering:optimizeQuality; fill-rule:evenodd; clip-rule:evenodd"
viewBox="0 0 3033.66 1232.36"
 xmlns:xlink="http://www.w3.org/1999/xlink">
 <defs>
  <style type="text/css">
   <![CDATA[
    .str0 {stroke:black;stroke-width:4.87;stroke-miterlimit:2.61313}
    .fil0 {fill:none}
   ]]>
  </style>
 </defs>
 <g id="Layer_x0020_1">
  <metadata id="CorelCorpID_0Corel-Layer"/>
  <path class="fil0 str0" d="M33.28 710.37c0,0 -106.44,-283.82 76.02,-476.42 0,0 172.32,-187.53 481.49,-223 309.16,-35.48 734.89,50.68 734.89,50.68 0,0 288.89,35.48 385.19,45.62 96.3,10.13 344.64,40.54 395.32,65.88 0,0 339.58,60.82 527.1,228.07 0,0 72.57,59.35 132.4,145.33 80.06,115.04 192.28,296.34 262.93,447.66 0,0 40.54,172.32 -197.67,207.8 0,0 -182.45,45.61 -390.25,20.27 -207.8,-25.34 -496.69,-101.36 -496.69,-101.36 0,0 -157.12,-30.41 -202.73,-25.34 0,0 -364.91,-20.28 -456.15,5.06 -91.22,25.35 -288.88,20.28 -288.88,20.28 0,0 -253.42,25.34 -410.53,-35.48 0,0 -446.01,-131.77 -552.44,-375.05z"/>
 </g>
</svg>
