<?xml version="1.0" encoding="UTF-8"?>
<!DOCTYPE svg PUBLIC "-//W3C//DTD SVG 1.1//EN" "http://www.w3.org/Graphics/SVG/1.1/DTD/svg11.dtd">
<!-- Creator: CorelDRAW 2019 (64-Bit) -->
<svg xmlns="http://www.w3.org/2000/svg" xml:space="preserve" width="410px" height="317px" version="1.1" style="shape-rendering:geometricPrecision; text-rendering:geometricPrecision; image-rendering:optimizeQuality; fill-rule:evenodd; clip-rule:evenodd"
viewBox="0 0 84.17 65.2"
 xmlns:xlink="http://www.w3.org/1999/xlink">
 <defs>
  <style type="text/css">
   <![CDATA[
    .fil0 {fill:#4B96C1}
   ]]>
  </style>
   <mask id="id0">
  <linearGradient id="id1" gradientUnits="userSpaceOnUse" x1="37.65" y1="-2.68" x2="33.68" y2="48.54">
   <stop offset="0" style="stop-opacity:1; stop-color:white"/>
   <stop offset="0.360784" style="stop-opacity:0.501961; stop-color:white"/>
   <stop offset="1" style="stop-opacity:0; stop-color:white"/>
  </linearGradient>
    <rect style="fill:url(#id1)" x="-0.21" y="-0.21" width="84.59" height="65.62"/>
   </mask>
 </defs>
 <g id="Layer_x0020_1">
  <metadata id="CorelCorpID_0Corel-Layer"/>
  <path class="fil0" style="mask:url(#id0)" d="M0.47 8.27c0,0 2.42,-10.53 17.94,-7.83 6.28,1.1 17.63,4.3 23.63,4.56 3.28,0.14 11.25,-0.43 11.25,-0.43 0,0 11.53,-1.42 14.66,-0.85 0,0 10.96,0.57 10.53,9.54 0,0 -2.13,8.11 -3.27,10.96 -1.14,2.84 0.14,6.55 0.14,6.55 0,0 4.27,8.11 5.55,9.82 1.29,1.71 2,3.98 2,3.98 0,0 4.55,7.55 -3.56,12.82 -8.12,5.26 -15.52,6.54 -15.52,6.54 0,0 -9.84,1.76 -18.65,1.14 -9.68,-0.69 -19.54,-7.28 -25.05,-14.09 -6.75,-5.96 -11.5,-12.6 -14.43,-20.27 -0.57,-1.49 -0.98,-3.55 -1.77,-5.81 -0.91,-2.62 -2.21,-5.52 -2.9,-8.15 -0.94,-3.55 -1.45,-6.95 -0.55,-8.48z"/>
 </g>
</svg>
