<?xml version="1.0" encoding="UTF-8"?>
<!DOCTYPE svg PUBLIC "-//W3C//DTD SVG 1.1//EN" "http://www.w3.org/Graphics/SVG/1.1/DTD/svg11.dtd">
<!-- Creator: CorelDRAW 2019 (64-Bit) -->
<svg xmlns="http://www.w3.org/2000/svg" xml:space="preserve" width="373px" height="364px" version="1.1" style="shape-rendering:geometricPrecision; text-rendering:geometricPrecision; image-rendering:optimizeQuality; fill-rule:evenodd; clip-rule:evenodd"
viewBox="0 0 458.19 446.35"
 xmlns:xlink="http://www.w3.org/1999/xlink">
 <defs>
  <style type="text/css">
   <![CDATA[
    .fil0 {fill:white}
   ]]>
  </style>
   <mask id="id0">
  <linearGradient id="id1" gradientUnits="userSpaceOnUse" x1="238.64" y1="438.38" x2="168.88" y2="-14.46">
   <stop offset="0" style="stop-opacity:1; stop-color:white"/>
   <stop offset="0.301961" style="stop-opacity:-127.502; stop-color:white"/>
   <stop offset="1" style="stop-opacity:0; stop-color:white"/>
  </linearGradient>
    <rect style="fill:url(#id1)" x="-1.28" y="-1.28" width="460.75" height="448.91"/>
   </mask>
 </defs>
 <g id="Layer_x0020_1">
  <metadata id="CorelCorpID_0Corel-Layer"/>
  <path class="fil0" style="mask:url(#id0)" d="M0.19 72.74c0,0 3.09,-81.26 84.35,-72 0,0 14.4,-2.06 48.34,12.34 33.95,14.4 40.12,14.4 40.12,14.4 0,0 24.68,16.46 92.57,23.66 0,0 56.58,1.03 77.15,11.31 20.57,10.29 51.43,14.4 90.52,79.21 39.08,64.8 20.57,92.57 20.57,92.57 0,0 -9.26,50.4 -88.46,100.8 0,0 -42.18,33.95 -61.72,45.26 0,0 -34.97,20.57 -60.69,26.75 0,0 -120.35,39.08 -131.66,38.05 0,0 -60.69,9.26 -84.35,-22.62 0,0 -30.85,-24.69 -22.62,-75.09 0,0 29.83,-111.09 9.25,-181.04 0,0 -15.43,-61.71 -13.37,-93.6z"/>
 </g>
</svg>
